<svg width="345" height="344" viewBox="0 0 345 344" fill="none" xmlns="http://www.w3.org/2000/svg">
<path d="M232.347 207.073L232.545 206.874C235.682 203.681 239.27 197.665 241.056 193.556C256.757 157.452 237.339 116.699 211.061 91.3527C205.776 86.3157 200.226 81.5637 194.436 77.1162C192.887 75.9187 184.926 70.3222 184.634 69.0319C185.856 67.4999 193.025 69.3214 194.886 69.7642C210.331 73.5017 224.624 80.9659 236.516 91.5047C258.822 110.838 272.382 138.354 274.127 167.82C274.467 172.978 274.217 177.338 273.617 182.423C271.47 200.59 265.432 213.914 253.602 227.615C262.94 235.858 271.857 245.445 280.992 253.952C284.155 256.897 284.572 258.882 284.587 263.017C285.382 264.409 286.235 264.509 287.035 266.617C288.472 270.434 287.467 273.852 284.91 276.759C270.472 293.189 267.26 288.064 254.3 274.424C248.946 268.789 239.986 259.064 233.854 253.639C233.598 253.774 233.341 253.907 233.083 254.039C197.44 272.029 159.207 262.942 130.097 236.866C128.287 235.245 124.956 231.714 122.809 231.011C121.856 231.339 119.446 233.035 118.944 233.9C118.152 230.955 117.313 228.587 115.533 226.087L115.002 226.393C113.322 226.269 107.315 219.046 105.397 217.671C98.4473 212.69 94.3998 207.164 87.4068 215.232C87.323 214.978 87.2465 214.722 87.177 214.464C86.828 213.15 86.8363 210.308 87.6613 209.279C91.1898 204.878 97.246 208.674 100.396 210.698L109.199 200.758C114.236 195.182 117.635 195.493 122.881 200.359C140.721 217.318 160.887 229.647 186.386 229.036C193.178 228.929 199.904 227.691 206.29 225.375L210.557 223.634C216.997 220.962 224.905 215.143 229.714 210.155C230.454 209.387 231.956 208.003 232.347 207.073Z" fill="#FDC534"/>
<path d="M253.603 227.615C262.94 235.859 271.858 245.445 280.993 253.952C284.155 256.897 284.573 258.882 284.588 263.017C283.215 267.867 278.943 271.785 275.255 275.097C270.103 279.622 264.353 279.652 259.733 274.462C250.92 264.572 239.839 255.15 231.494 244.988C240.543 239.609 246.433 235.18 253.603 227.615Z" fill="#FCB535"/>
<path d="M120.445 222.195L120.718 222.401C122.71 223.922 125.188 226.476 127.074 228.255C129.328 230.35 131.685 232.333 134.134 234.196C154.166 249.346 177.652 257.501 202.874 254.318C214.528 252.848 221.229 249.767 231.493 244.989C239.838 255.151 250.92 264.573 259.732 274.463C264.352 279.653 270.102 279.623 275.255 275.098C278.942 271.786 283.215 267.868 284.587 263.018C285.382 264.411 286.235 264.511 287.035 266.618C288.472 270.436 287.467 273.853 284.91 276.761C270.472 293.191 267.26 288.066 254.3 274.426C248.946 268.791 239.986 259.066 233.854 253.641C233.598 253.776 233.341 253.908 233.083 254.041C197.44 272.031 159.207 262.943 130.097 236.868C128.287 235.246 124.956 231.716 122.809 231.013C121.856 231.341 119.446 233.036 118.944 233.902C118.152 230.956 117.313 228.588 115.533 226.089L115.477 225.745C117.01 224.159 118.44 223.129 120.445 222.195Z" fill="#B12838"/>
<path d="M100.396 210.698L109.199 200.758C114.236 195.182 117.635 195.493 122.881 200.358C121.837 201.918 121.146 201.504 119.207 201.025C115.046 199.996 112.965 202.226 110.332 205.024C108.274 207.336 105.199 210.529 103.34 213.063C106.186 215.573 108.894 218.235 111.451 221.039C112.672 222.404 114.272 224.59 115.477 225.743L115.533 226.087L115.002 226.392C113.322 226.269 107.315 219.046 105.397 217.67C98.4473 212.69 94.3998 207.164 87.4068 215.232C87.323 214.978 87.2465 214.722 87.177 214.464C86.828 213.15 86.8363 210.308 87.6613 209.279C91.1898 204.877 97.246 208.674 100.396 210.698Z" fill="#FEE054"/>
<path d="M97.7676 150.548C97.2009 149.871 96.5354 149.166 96.4044 148.259C96.2709 147.336 96.7026 146.591 97.2381 145.882C101.507 140.237 147.139 93.494 150.47 93.3312C153.573 93.1797 182.977 108.028 186.683 111.274C186.244 111.915 185.696 112.579 185.211 113.195L183.333 115.309C183.978 116.227 188.18 118.146 189.797 119.493C186.749 123.914 168.226 142.621 167.685 144.518C172.501 149.477 177.453 154.003 182.406 158.8L219.954 195.056C224.066 199.063 228.318 202.983 232.347 207.074C231.956 208.004 230.454 209.387 229.714 210.155C224.905 215.144 216.997 220.963 210.558 223.635L206.29 225.375C205.411 223.66 197.262 215.458 195.449 213.555L162.407 179.342C157.812 174.576 151.831 168.889 147.66 164.001C143.206 168.501 138.612 172.861 133.885 177.074C131.963 178.793 130.023 180.751 127.872 182.179C126.995 182.761 125.586 183.606 124.5 183.315C121.253 182.444 101.828 161.624 99.8163 157.762C99.4023 156.967 99.0831 156.066 99.4156 155.179C99.6458 154.564 100.075 154.275 100.638 153.995C99.5851 152.823 98.7366 151.776 97.7676 150.548Z" fill="#FDC534"/>
<path d="M144.751 155.555C150.375 150.175 156.333 144.433 161.533 138.668C162.994 140.391 165.964 143 167.685 144.517C172.501 149.476 177.453 154.002 182.406 158.799L219.955 195.055C224.066 199.063 228.318 202.982 232.348 207.073C231.956 208.003 230.454 209.387 229.714 210.155C224.906 215.143 216.997 220.962 210.558 223.634L206.29 225.375C205.412 223.659 197.262 215.457 195.449 213.554L162.408 179.341C157.813 174.575 151.832 168.888 147.661 164C143.206 168.501 138.612 172.861 133.885 177.074C131.964 178.792 130.023 180.75 127.873 182.178C126.995 182.761 125.586 183.605 124.5 183.314C121.253 182.443 101.829 161.624 99.8165 157.761C99.4025 156.966 99.0833 156.066 99.4158 155.178C99.646 154.563 100.075 154.275 100.638 153.994C103.679 157.52 118.234 173.823 122.044 175.136C124.614 175.239 135.252 164.307 138.059 162.035C139.095 161.198 143.724 156.698 144.751 155.555Z" fill="#FDBB33"/>
<path d="M100.638 153.994C103.679 157.52 118.234 173.823 122.044 175.137C124.614 175.24 135.252 164.307 138.059 162.035C139.095 161.198 143.724 156.698 144.751 155.555C166.484 178.312 188.952 200.825 210.558 223.634L206.29 225.375C205.412 223.659 197.262 215.458 195.449 213.554L162.408 179.341C157.813 174.575 151.832 168.888 147.661 164C143.206 168.501 138.612 172.861 133.885 177.074C131.964 178.793 130.023 180.75 127.873 182.178C126.995 182.761 125.586 183.605 124.5 183.314C121.253 182.443 101.829 161.624 99.8165 157.761C99.4025 156.967 99.0833 156.066 99.4158 155.178C99.646 154.564 100.075 154.275 100.638 153.994Z" fill="#B12838"/>
<path d="M97.7676 150.548C97.2009 149.871 96.5354 149.166 96.4044 148.259C96.2709 147.336 96.7026 146.591 97.2381 145.882C101.507 140.237 147.139 93.494 150.47 93.3312C153.573 93.1797 182.977 108.028 186.683 111.274C186.244 111.915 185.696 112.579 185.211 113.195C181.542 110.945 154.133 97.0065 151.891 97.601C147.866 98.668 116.005 131.474 110.732 137.03C107.189 140.763 101.563 147.765 97.7676 150.548Z" fill="#FEE054"/>
<path d="M183.333 115.309C183.978 116.226 188.18 118.145 189.797 119.493C186.749 123.914 168.226 142.621 167.685 144.517C165.964 143.001 162.993 140.391 161.533 138.668C168.91 131.341 176.274 122.97 183.333 115.309Z" fill="#B12838"/>
<path d="M87.407 215.234C94.4 207.165 98.4475 212.692 105.397 217.672C107.316 219.047 113.323 226.27 115.002 226.394L115.533 226.089C117.314 228.588 118.153 230.956 118.944 233.901L118.802 235.13C120.938 237.82 121.397 239.467 121.921 242.815C117.672 252.723 113.586 243.707 107.528 246.069C106.378 246.518 102.983 251.143 102.004 252.441L93.0303 264.161C86.2285 273.091 77.1558 288.741 65.1083 275.203C62.6003 272.386 54.68 266.528 57.704 262.086C56.3855 260.711 55.0103 259.463 54.4855 257.608C53.7658 254.233 54.0743 251.056 55.9165 248.07C58.6243 243.682 76.374 231.188 81.8473 227.085C84.465 225.122 87.8283 223.163 89.1363 220.041C88.9868 218.277 88.186 216.787 87.407 215.234Z" fill="#FDB535"/>
<path d="M118.803 235.129C120.938 237.819 121.397 239.467 121.922 242.814C117.673 252.722 113.587 243.706 107.528 246.069C106.378 246.517 102.984 251.142 102.004 252.44L93.0309 264.16C86.2292 273.09 77.1564 288.74 65.1089 275.202C62.6009 272.385 54.6807 266.527 57.7047 262.085C59.6719 264.03 64.7452 269.48 66.7419 270.577C76.7882 276.09 83.9654 263.652 88.8442 257.28L99.4269 243.368C100.44 242.03 103.65 237.619 104.958 237.308C110.787 235.922 114.16 243.198 118.803 235.129Z" fill="#B12838"/>
<path d="M89.1363 220.041C89.818 220.866 90.523 223.686 90.2278 224.555C89.3148 227.239 83.246 231.067 81.1353 232.635C76.5675 236.075 72.0243 239.547 67.5065 243.051C64.7198 245.186 62.23 246.954 59.5658 249.262C56.394 252.008 55.7868 256.148 54.4855 257.608C53.7658 254.233 54.0743 251.055 55.9165 248.069C58.6243 243.682 76.374 231.188 81.8473 227.084C84.465 225.122 87.8283 223.162 89.1363 220.041Z" fill="#FEE054"/>
</svg>
